<svg width="56" height="56" viewBox="0 0 56 56" fill="none" xmlns="http://www.w3.org/2000/svg">
<circle cx="28" cy="28" r="28" fill="black"/>
<path d="M37.8293 22.8643C37.6797 22.9813 35.0383 24.4816 35.0383 27.8178C35.0383 31.6766 38.3994 33.0417 38.5 33.0755C38.4845 33.1587 37.966 34.9451 36.7279 36.7653C35.6238 38.367 34.4708 39.9662 32.7167 39.9662C30.9626 39.9662 30.5112 38.9391 28.4862 38.9391C26.5129 38.9391 25.8113 40 24.2068 40C22.6023 40 21.4828 38.5179 20.1956 36.6977C18.7046 34.5603 17.5 31.2397 17.5 28.0882C17.5 23.0333 20.7605 20.3524 23.9695 20.3524C25.6745 20.3524 27.0959 21.4809 28.1664 21.4809C29.1853 21.4809 30.7743 20.2848 32.7141 20.2848C33.4493 20.2848 36.0907 20.3524 37.8293 22.8643ZM31.7932 18.1448C32.5954 17.1853 33.1629 15.854 33.1629 14.5227C33.1629 14.338 33.1475 14.1508 33.1139 14C31.8087 14.0494 30.2558 14.8763 29.3194 15.971C28.5843 16.8135 27.8981 18.1448 27.8981 19.4943C27.8981 19.6972 27.9316 19.9 27.9471 19.965C28.0297 19.9806 28.1638 19.9988 28.2979 19.9988C29.469 19.9988 30.942 19.2083 31.7932 18.1448Z" fill="white"/>
</svg>
