<svg xmlns="http://www.w3.org/2000/svg" viewBox="0 0 56 56">
  <circle cx="28" cy="28" r="28" fill="#ffffff" stroke="#e0e0e0" stroke-width="1"/>
  <path d="M38.64 28.2c0-.63-.06-1.25-.16-1.84H28v3.48h5.97a5.1 5.1 0 0 1-2.21 3.35v2.78h3.58c2.09-1.93 3.3-4.77 3.3-8.57z" fill="#4285F4"/>
  <path d="M28 39c2.97 0 5.46-.98 7.28-2.66l-3.58-2.78c-.99.66-2.25 1.05-3.7 1.05-2.84 0-5.25-1.92-6.11-4.5h-3.7v2.87A11 11 0 0 0 28 39z" fill="#34A853"/>
  <path d="M21.89 30.11a6.6 6.6 0 0 1 0-4.22v-2.87h-3.7a11 11 0 0 0 0 9.96l3.7-2.87z" fill="#FBBC05"/>
  <path d="M28 21.38c1.6 0 3.04.55 4.17 1.63l3.12-3.12A11 11 0 0 0 28 17a11 11 0 0 0-9.81 6.02l3.7 2.87c.86-2.58 3.27-4.5 6.11-4.5z" fill="#EA4335"/>
</svg>
