<svg width="40" height="40" viewBox="0 0 40 40" fill="none" xmlns="http://www.w3.org/2000/svg">
<circle cx="20" cy="20" r="20" fill="#E0E6ED"/>
<path d="M20.1109 28.1797H29.4341C30.1178 28.1797 30.663 28.7507 30.6314 29.4336C30.6018 30.0734 30.0745 30.5769 29.4341 30.5769H20L20.1109 28.1797Z" fill="#B6C8DD"/>
<path d="M20 9.41992C25.8423 9.41992 30.579 14.1558 30.5791 19.998C30.5791 25.8404 25.8424 30.5771 20 30.5771C14.1577 30.577 9.42188 25.8403 9.42188 19.998C9.42199 14.1559 14.1578 9.42004 20 9.41992ZM21.7334 23.2119C20.776 22.2549 19.224 22.2549 18.2666 23.2119C17.3091 24.1695 17.3091 25.7221 18.2666 26.6797C19.2241 27.6371 20.7759 27.6371 21.7334 26.6797C22.6909 25.7221 22.6909 24.1695 21.7334 23.2119ZM16.7842 18.2646C15.8267 17.3076 14.2748 17.3076 13.3174 18.2646C12.3598 19.2222 12.3598 20.7749 13.3174 21.7324C14.2749 22.6898 15.8267 22.6898 16.7842 21.7324C17.7417 20.7749 17.7417 19.2222 16.7842 18.2646ZM26.6787 18.2607C25.7213 17.3037 24.1694 17.3037 23.2119 18.2607C22.2544 19.2183 22.2544 20.771 23.2119 21.7285C24.1694 22.6859 25.7212 22.6859 26.6787 21.7285C27.6363 20.771 27.6363 19.2183 26.6787 18.2607ZM20.8672 19.1328C20.3884 18.654 19.6116 18.654 19.1328 19.1328C18.6544 19.6115 18.6543 20.3875 19.1328 20.8662C19.6116 21.345 20.3884 21.345 20.8672 20.8662C21.3457 20.3875 21.3456 19.6115 20.8672 19.1328ZM21.7334 13.3154C20.776 12.3584 19.224 12.3584 18.2666 13.3154C17.3091 14.273 17.3091 15.8257 18.2666 16.7832C19.2241 17.7406 20.7759 17.7406 21.7334 16.7832C22.6909 15.8257 22.6909 14.273 21.7334 13.3154Z" fill="#8CA3BE"/>
</svg>
