<svg width="40" height="40" viewBox="0 0 40 40" fill="none" xmlns="http://www.w3.org/2000/svg">
<circle cx="20" cy="20" r="20" fill="#E0E6ED"/>
<path d="M25 22H23C22.7167 22 22.4793 21.904 22.288 21.712C22.0967 21.52 22.0007 21.2827 22 21V15C22 13.8333 22.4293 12.7083 23.288 11.625C24.1467 10.5417 25.034 10 25.95 10C26.25 10 26.5 10.1167 26.7 10.35C26.9 10.5833 27 10.8583 27 11.175V29C27 29.2833 26.904 29.521 26.712 29.713C26.52 29.905 26.2827 30.0007 26 30C25.7173 29.9993 25.48 29.9033 25.288 29.712C25.096 29.5207 25 29.2833 25 29V22Z" fill="#B6C8DD"/>
<path d="M15 11V17H14V11C14.0013 10.718 13.9057 10.4807 13.713 10.288C13.5203 10.0953 13.2827 9.99934 13 10C12.7173 10.0007 12.48 10.0967 12.288 10.288C12.096 10.4793 12 10.7167 12 11V17C12.0007 17.9333 12.2883 18.75 12.863 19.45C13.4377 20.15 14.15 20.6167 15 20.85V29C15 29.2833 15.096 29.5207 15.288 29.712C15.48 29.9033 15.7173 29.9993 16 30C16.2827 30.0007 16.52 29.905 16.712 29.713C16.904 29.521 17 29.2833 17 29V20.85C17.8507 20.6167 18.5633 20.15 19.138 19.45C19.7127 18.75 20 17.9333 20 17V11C20.0013 10.718 19.9057 10.4807 19.713 10.288C19.5203 10.0953 19.2827 9.99934 19 10C18.7173 10.0007 18.48 10.0967 18.288 10.288C18.096 10.4793 18 10.7167 18 11V17H17V11C17.0013 10.718 16.9057 10.4807 16.713 10.288C16.5203 10.0953 16.2827 9.99934 16 10C15.7173 10.0007 15.48 10.0967 15.288 10.288C15.096 10.4793 15 10.7167 15 11Z" fill="#8CA3BE"/>
</svg>
