<svg width="40" height="40" viewBox="0 0 40 40" fill="none" xmlns="http://www.w3.org/2000/svg">
<circle cx="20" cy="20" r="20" fill="#E0E6ED"/>
<path d="M22 13C22 11.8954 21.1046 11 20 11C18.8954 11 18 11.8954 18 13V14C18 15.1046 18.8954 16 20 16C21.1046 16 22 15.1046 22 14V13ZM24 14C24 16.2091 22.2091 18 20 18C17.7909 18 16 16.2091 16 14V13C16 10.7909 17.7909 9 20 9C22.2091 9 24 10.7909 24 13V14Z" fill="#B6C8DD"/>
<path d="M11.205 16.1867C11.095 15.0135 12.018 14 13.1963 14H26.8037C27.982 14 28.905 15.0135 28.795 16.1867L27.755 27.28C27.6105 28.8216 26.3165 30 24.7681 30H15.2319C13.6835 30 12.3895 28.8216 12.245 27.28L11.205 16.1867Z" fill="#8CA3BE"/>
</svg>
