<svg width="16" height="16" viewBox="0 0 16 16" fill="none" xmlns="http://www.w3.org/2000/svg">
<path d="M9.97559 2.47266C9.97559 5.37394 13.6956 6.82818 13.2939 10.5469C13.1719 12.7585 10.8066 14.5225 7.90527 14.5225C5.54362 14.5224 3.5374 13.3533 2.80664 11.7256C2.78008 11.6899 2.75539 11.6531 2.73438 11.6143C0.711607 6.0047 6.65138 2.88818 9.97559 2.47266Z" fill="#9C9FAE"/>
<path d="M8.49902 7.70312C8.23577 9.08799 9.93397 8.76848 9.98633 10.9922C9.98647 11 9.98828 11.0078 9.98828 11.0156C9.98828 11.0191 9.98733 11.0229 9.9873 11.0264C9.98768 11.05 9.98926 11.0744 9.98926 11.0986C9.98706 11.0995 9.98463 11.0997 9.98242 11.1006C9.92506 11.9757 8.9892 12.6717 7.83887 12.6719C6.89661 12.6719 6.09718 12.2045 5.80664 11.5547C5.79655 11.541 5.78637 11.5275 5.77832 11.5127C4.97208 9.27691 7.17411 7.86874 8.49902 7.70312Z" fill="white"/>
</svg>
