<svg width="16" height="16" viewBox="0 0 16 16" fill="none" xmlns="http://www.w3.org/2000/svg">
<path d="M3.00815 13H5.70638L3.00815 10.2996V13Z" fill="#9C9FAE"/>
<path d="M12.2819 6.41051L9.58367 3.71007L3 10.2991L5.69824 12.9995L12.2819 6.41051Z" fill="#9C9FAE"/>
<path d="M12.2766 6.42438L12.4412 6.25972C13.1863 5.51401 13.1863 4.30498 12.4412 3.55928C11.6961 2.81357 10.488 2.81357 9.74294 3.55928L9.57841 3.72394L12.2766 6.42438Z" fill="#9C9FAE"/>
<path d="M5.89551 12.8008H5C4.44772 12.8008 4 12.3531 4 11.8008C4 11.2485 4.44772 10.8008 5 10.8008H7.89355L5.89551 12.8008ZM13 10.8008C13.5523 10.8008 14 11.2485 14 11.8008C14 12.3531 13.5523 12.8008 13 12.8008H7.87598L9.87402 10.8008H13Z" fill="#C0C1CC"/>
<path d="M3.00815 13H5.70638L3.00815 10.2996V13Z" fill="#9C9FAE"/>
<path d="M12.2819 6.41051L9.58367 3.71007L3 10.2991L5.69824 12.9995L12.2819 6.41051Z" fill="#9C9FAE"/>
<path d="M12.2766 6.42438L12.4412 6.25972C13.1863 5.51401 13.1863 4.30498 12.4412 3.55928C11.6961 2.81357 10.488 2.81357 9.74294 3.55928L9.57841 3.72394L12.2766 6.42438Z" fill="#9C9FAE"/>
</svg>
