<svg width="16" height="16" viewBox="0 0 16 16" fill="none" xmlns="http://www.w3.org/2000/svg">
<path d="M0.5 5.47874C0.5 4.37944 1.39116 3.48828 2.49046 3.48828H13.5095C14.6088 3.48828 15.5 4.37944 15.5 5.47874V11.1901C15.5 12.2894 14.6088 13.1806 13.5095 13.1806H2.49046C1.39116 13.1806 0.5 12.2894 0.5 11.1901V5.47874Z" fill="#9C9FAE"/>
<path d="M6.52889 9.82743L7.67032 5.875H8.30795L8.45358 6.5332L7.23736 10.5727H6.5525L6.52889 9.82743ZM5.94242 5.875L6.88706 9.82743L6.80834 10.5727H6.04476L4.77344 5.875H5.94242ZM9.45726 9.8113L10.3901 5.875H11.5591L10.2917 10.5727H9.52811L9.45726 9.8113ZM8.66613 5.875L9.81543 9.84356L9.78395 10.5727H9.09908L7.87499 6.52997L8.03243 5.875H8.66613Z" fill="white"/>
<rect x="4.24609" y="7.77734" width="1.30493" height="0.950693" fill="white"/>
<rect x="10.7695" y="7.77734" width="1.30493" height="0.950693" fill="white"/>
</svg>
