<svg width="16" height="16" viewBox="0 0 16 16" fill="none" xmlns="http://www.w3.org/2000/svg">
<path d="M12.5205 2.35742C12.9803 2.30058 13.3582 2.68319 13.3584 3.14648V9.18164H13.3604L13.3389 13.3877C13.3364 13.8494 12.9607 14.2227 12.499 14.2227H12.3711C11.906 14.2226 11.5298 13.844 11.5322 13.3789L11.5518 9.63965H10.0732C9.60985 9.63961 9.23438 9.26418 9.23438 8.80078V5.4502C9.23438 4.49775 9.91625 2.67955 12.5205 2.35742Z" fill="#9C9FAE"/>
<path d="M5.1084 2.30664C5.48806 2.30664 5.79585 2.61449 5.7959 2.99414V5.17188C5.79611 5.36127 5.9502 5.51465 6.13965 5.51465C6.32896 5.51449 6.48221 5.36117 6.48242 5.17188V3.00879C6.48242 2.63461 6.78215 2.32899 7.15625 2.32129C7.54128 2.31352 7.85742 2.62365 7.85742 3.00879V5.51465H7.8584V6.43066C7.8584 7.62978 7.09003 8.64635 6.01953 9.02246V13.3096C6.01953 13.8136 5.61141 14.2225 5.10742 14.2227C4.60328 14.2227 4.19434 13.8137 4.19434 13.3096V9.02051C3.12627 8.64295 2.35938 7.62788 2.35938 6.43066V3.00879C2.35938 2.62355 2.67637 2.31336 3.06152 2.32129C3.43548 2.32915 3.73438 2.63471 3.73438 3.00879V5.17188C3.73459 5.36127 3.88868 5.51465 4.07812 5.51465C4.26744 5.51449 4.42068 5.36117 4.4209 5.17188V2.99414C4.42095 2.61455 4.72882 2.30675 5.1084 2.30664Z" fill="#9C9FAE"/>
</svg>
