<svg width="16" height="16" viewBox="0 0 16 16" fill="none" xmlns="http://www.w3.org/2000/svg">
<path d="M2.83203 3.68786C2.83203 2.72763 3.61045 1.94922 4.57067 1.94922H11.2934C12.2536 1.94922 13.032 2.72763 13.032 3.68786V12.2651C13.032 13.2253 12.2536 14.0038 11.2934 14.0038H4.57067C3.61044 14.0038 2.83203 13.2253 2.83203 12.2651V3.68786Z" fill="#9C9FAE"/>
<path d="M2.83203 4.7315C2.83203 3.70726 3.66234 2.87695 4.68658 2.87695H11.1775C11.6896 2.87695 12.1048 3.29211 12.1048 3.80423V12.6133C12.1048 13.6376 11.2744 14.4679 10.2502 14.4679H4.68658C3.66234 14.4679 2.83203 13.6376 2.83203 12.6133V4.7315Z" fill="white"/>
<path d="M2.83203 5.19485C2.83203 4.68273 3.24719 4.26758 3.7593 4.26758H11.2934C12.2536 4.26758 13.032 5.04599 13.032 6.00621V12.7289C13.032 13.6892 12.2536 14.4676 11.2934 14.4676H4.57067C3.61044 14.4676 2.83203 13.6892 2.83203 12.7289V5.19485Z" fill="#9C9FAE"/>
<path d="M8.48828 4.32773C8.48828 4.03779 8.72333 3.80273 9.01328 3.80273H11.1133C11.4032 3.80273 11.6383 4.03778 11.6383 4.32773V7.18415C11.6383 7.52623 11.2512 7.72483 10.9733 7.52532L10.2899 7.03467C10.2209 6.98509 10.1287 6.98204 10.0565 7.02696L9.13016 7.60335C8.85039 7.77742 8.48828 7.57625 8.48828 7.24674L8.48828 4.32773Z" fill="#6B7684"/>
<path d="M2.83203 3.80377C2.83203 2.77953 3.66234 1.94922 4.68658 1.94922H4.91839V5.19467H2.83203V3.80377Z" fill="#9C9FAE"/>
<circle cx="4.91811" cy="3.57241" r="0.695454" fill="white"/>
</svg>
