<svg width="16" height="16" viewBox="0 0 16 16" fill="none" xmlns="http://www.w3.org/2000/svg">
<path d="M5.80078 10.7793H9.80076L9.48628 13.4544C9.39747 14.2099 8.75733 14.7793 7.99666 14.7793C7.93392 14.7793 7.86865 14.7793 7.80077 14.7793C7.7469 14.7793 7.6948 14.7793 7.64444 14.7793C6.89214 14.7793 6.25675 14.222 6.15797 13.4762L5.80078 10.7793Z" fill="#6B7684"/>
<path d="M7.80078 1.17188C10.5622 1.17189 12.8008 3.41047 12.8008 6.17188C12.8008 7.87145 11.9518 9.37141 10.6557 10.2746C10.4415 10.4239 10.2998 10.6618 10.2998 10.9229C10.2997 12.0273 9.40428 12.9228 8.2998 12.9229H7.2998C6.19533 12.9229 5.29994 12.0273 5.2998 10.9229C5.2998 10.6617 5.15816 10.4238 4.944 10.2745C3.64871 9.37106 2.8008 7.87086 2.80078 6.17188C2.80078 3.41046 5.03937 1.17188 7.80078 1.17188Z" fill="#9C9FAE"/>
</svg>
