<svg width="16" height="16" viewBox="0 0 16 16" fill="none" xmlns="http://www.w3.org/2000/svg">
<path d="M3.27881 3.85498C3.50673 3.72339 3.7873 3.71941 4.0185 3.84515L9.28218 6.70821L11.496 5.15602C12.488 4.46053 13.8638 4.76493 14.4695 5.81407C15.0394 6.80126 14.7006 8.06338 13.7134 8.63332L7.38737 12.2857L7.38786 12.2865L5.71839 13.2504C4.89291 13.727 3.84034 13.507 3.27525 12.7394L1.84466 10.7948C1.27458 10.02 1.86908 8.93259 2.82905 8.99394C2.93867 9.00095 3.04438 9.03948 3.13236 9.10524L4.45392 10.0935L6.05267 8.97195L3.0324 6.29537C2.26016 5.61091 2.38528 4.37112 3.27881 3.85498Z" fill="#9C9FAE"/>
</svg>
