<svg width="128" height="40" viewBox="0 0 128 40" fill="none" xmlns="http://www.w3.org/2000/svg">
<path d="M107.91 30.0855V1.41016H113.713V17.3078H113.832L121.026 8.78268H127.603L119.555 17.9437L128.001 30.0855H121.304L115.203 21.3815L113.713 23.0309V30.0855H107.91Z" fill="white"/>
<path d="M84.2617 30.0877V8.78484H90.0644V12.2823H90.1836C91.2766 9.83806 93.4625 8.34766 96.6818 8.34766C101.372 8.34766 104.034 11.3483 104.034 16.3362V30.0877H98.2318V17.5285C98.2318 14.7464 96.9203 13.1567 94.317 13.1567C91.7138 13.1567 90.0644 15.0644 90.0644 17.8465V30.0877H84.2617Z" fill="white"/>
<path d="M77.4672 6.0411C75.7185 6.0411 74.3672 4.66993 74.3672 3.02055C74.3672 1.37117 75.7185 0 77.4672 0C79.216 0 80.5673 1.37117 80.5673 3.02055C80.5673 4.66993 79.216 6.0411 77.4672 6.0411ZM74.5659 30.0863V8.78344H80.3686V30.0863H74.5659Z" fill="white"/>
<path d="M52.8438 30.0855V1.41016H58.8451V25.1374H71.3844V30.0855H52.8438Z" fill="white"/>
<path d="M37.7787 30.5248C31.3003 30.5248 27.2266 26.3716 27.2266 19.4362V19.3965C27.2266 12.5407 31.3997 8.34766 37.7588 8.34766C44.1377 8.34766 48.3308 12.5009 48.3308 19.3965V19.4362C48.3308 26.3915 44.2172 30.5248 37.7787 30.5248ZM37.7985 25.9741C40.6204 25.9741 42.4287 23.5895 42.4287 19.4362V19.3965C42.4287 15.283 40.5806 12.8984 37.7588 12.8984C34.9568 12.8984 33.1286 15.283 33.1286 19.3965V19.4362C33.1286 23.6094 34.9369 25.9741 37.7985 25.9741Z" fill="white"/>
<path d="M0 30.0855V1.41016H10.9495C19.5343 1.41016 24.6216 6.51727 24.6216 15.5988V15.6385C24.6216 24.7399 19.5542 30.0855 10.9495 30.0855H0ZM6.00138 25.1175H10.2341C15.5996 25.1175 18.5009 21.8585 18.5009 15.6584V15.6187C18.5009 9.63718 15.5003 6.35829 10.2341 6.35829H6.00138V25.1175Z" fill="white"/>
<path d="M50.5234 36.1914H127.85V39.2437H50.5234V36.1914Z" fill="white"/>
</svg>
