<svg width="160" height="50" viewBox="0 0 160 50" fill="none" xmlns="http://www.w3.org/2000/svg">
<path d="M134.887 37.6079V1.76367H142.14V21.6357H142.289L151.281 10.9793H159.503L149.443 22.4306L160 37.6079H151.629L144.003 26.7279L142.14 28.7897V37.6079H134.887Z" fill="#394CFF"/>
<path d="M105.328 37.6086V10.9801H112.581V15.3519H112.73C114.097 12.2966 116.829 10.4336 120.853 10.4336C126.716 10.4336 130.044 14.1844 130.044 20.4193V37.6086H122.791V21.9097C122.791 18.4321 121.151 16.4449 117.897 16.4449C114.643 16.4449 112.581 18.8295 112.581 22.3071V37.6086H105.328Z" fill="#394CFF"/>
<path d="M96.8321 7.55138C94.6462 7.55138 92.957 5.83741 92.957 3.77569C92.957 1.71396 94.6462 0 96.8321 0C99.018 0 100.707 1.71396 100.707 3.77569C100.707 5.83741 99.018 7.55138 96.8321 7.55138ZM93.2054 37.6078V10.9793H100.459V37.6078H93.2054Z" fill="#394CFF"/>
<path d="M66.0547 37.6079V1.76367H73.5564V31.4227H89.2306V37.6079H66.0547Z" fill="#394CFF"/>
<path d="M47.2214 38.1551C39.1235 38.1551 34.0312 32.9635 34.0312 24.2943V24.2447C34.0312 15.6748 39.2477 10.4336 47.1965 10.4336C55.1702 10.4336 60.4115 15.6252 60.4115 24.2447V24.2943C60.4115 32.9884 55.2696 38.1551 47.2214 38.1551ZM47.2462 32.4667C50.7735 32.4667 53.034 29.4859 53.034 24.2943V24.2447C53.034 19.1028 50.7238 16.122 47.1965 16.122C43.6941 16.122 41.4088 19.1028 41.4088 24.2447V24.2943C41.4088 29.5108 43.6692 32.4667 47.2462 32.4667Z" fill="black"/>
<path d="M0 37.6079V1.76367H13.6869C24.4179 1.76367 30.777 8.14757 30.777 19.4995V19.5492C30.777 30.9259 24.4427 37.6079 13.6869 37.6079H0ZM7.50173 31.3979H12.7927C19.4995 31.3979 23.1262 27.3241 23.1262 19.574V19.5243C23.1262 12.0475 19.3753 7.94885 12.7927 7.94885H7.50173V31.3979Z" fill="black"/>
<path d="M63.1523 45.2383H159.81V49.0537H63.1523V45.2383Z" fill="#394CFF"/>
</svg>
