<svg width="40" height="40" viewBox="0 0 40 40" fill="none" xmlns="http://www.w3.org/2000/svg">
<circle cx="20" cy="20" r="20" fill="#E0E6ED"/>
<g clip-path="url(#clip0_1827_10250)">
<path d="M29.2503 10.7386C29.59 11.0783 29.7889 11.4926 29.8101 11.9746C29.8314 12.4361 29.6859 12.9117 29.443 13.389C28.9602 14.334 27.9963 15.4646 26.6283 16.8326L25.5119 17.949L27.2392 25.6674L27.2447 25.698C27.3791 26.5134 26.9766 27.1895 26.497 27.6408L24.9253 29.214C24.8611 29.2783 24.782 29.3258 24.6951 29.3524C24.6083 29.379 24.5162 29.3839 24.4269 29.3667C24.3377 29.3495 24.2541 29.3106 24.1833 29.2536C24.1126 29.1965 24.0569 29.123 24.0212 29.0395L21.0052 21.9824L17.4067 25.15L18.1214 27.7438L18.1277 27.7627C18.2432 28.2493 18.0522 28.7454 17.733 29.0646C17.7066 29.0911 17.6776 29.1148 17.6465 29.1354L16.2038 30.0859C16.1381 30.1289 16.064 30.1575 15.9865 30.1699C15.909 30.1823 15.8297 30.1782 15.7539 30.1578C15.678 30.1375 15.6074 30.1014 15.5464 30.0519C15.4855 30.0024 15.4357 29.9406 15.4003 29.8705L13.6415 26.3459L10.1271 24.5973C10.0568 24.5622 9.9947 24.5125 9.94498 24.4516C9.89527 24.3907 9.85903 24.32 9.83868 24.244C9.81832 24.1681 9.8143 24.0887 9.82688 24.0111C9.83946 23.9335 9.86836 23.8594 9.91166 23.7938L10.8622 22.3511C10.8828 22.32 10.9065 22.291 10.933 22.2646C11.2522 21.9454 11.7483 21.7544 12.2357 21.8707L12.253 21.8754L14.8476 22.5909L18.0137 18.9924L10.9581 15.9764C10.8748 15.9406 10.8015 15.8848 10.7446 15.8141C10.6878 15.7434 10.6491 15.6599 10.6319 15.5708C10.6148 15.4817 10.6197 15.3897 10.6463 15.303C10.6729 15.2162 10.7203 15.1373 10.7844 15.0731L12.3568 13.5006C12.8081 13.021 13.4843 12.6185 14.2988 12.7537L14.3302 12.7584L22.0486 14.4857L23.1642 13.3701C24.533 12.0013 25.6612 11.0366 26.6039 10.5515C27.0796 10.307 27.5529 10.1607 28.0144 10.1804C28.4971 10.2008 28.9107 10.4005 29.2503 10.7386Z" fill="#8CA3BE"/>
<mask id="mask0_1827_10250" style="mask-type:alpha" maskUnits="userSpaceOnUse" x="9" y="10" width="21" height="21">
<path d="M29.2503 10.7386C29.59 11.0783 29.7889 11.4926 29.8101 11.9746C29.8314 12.4361 29.6859 12.9117 29.443 13.389C28.9602 14.334 27.9963 15.4646 26.6283 16.8326L25.5119 17.949L27.2392 25.6674L27.2447 25.698C27.3791 26.5134 26.9766 27.1895 26.497 27.6408L24.9253 29.214C24.8611 29.2783 24.782 29.3258 24.6951 29.3524C24.6083 29.379 24.5162 29.3839 24.4269 29.3667C24.3377 29.3495 24.2541 29.3106 24.1833 29.2536C24.1126 29.1965 24.0569 29.123 24.0212 29.0395L21.0052 21.9824L17.4067 25.15L18.1214 27.7438L18.1277 27.7627C18.2432 28.2493 18.0522 28.7454 17.733 29.0646C17.7066 29.0911 17.6776 29.1148 17.6465 29.1354L16.2038 30.0859C16.1381 30.1289 16.064 30.1575 15.9865 30.1699C15.909 30.1823 15.8297 30.1782 15.7539 30.1578C15.678 30.1375 15.6074 30.1014 15.5464 30.0519C15.4855 30.0024 15.4357 29.9406 15.4003 29.8705L13.6415 26.3459L10.1271 24.5973C10.0568 24.5622 9.9947 24.5125 9.94498 24.4516C9.89527 24.3907 9.85903 24.32 9.83868 24.244C9.81832 24.1681 9.8143 24.0887 9.82688 24.0111C9.83946 23.9335 9.86836 23.8594 9.91166 23.7938L10.8622 22.3511C10.8828 22.32 10.9065 22.291 10.933 22.2646C11.2522 21.9454 11.7483 21.7544 12.2357 21.8707L12.253 21.8754L14.8476 22.5909L18.0137 18.9924L10.9581 15.9764C10.8748 15.9406 10.8015 15.8848 10.7446 15.8141C10.6878 15.7434 10.6491 15.6599 10.6319 15.5708C10.6148 15.4817 10.6197 15.3897 10.6463 15.303C10.6729 15.2162 10.7203 15.1373 10.7844 15.0731L12.3568 13.5006C12.8081 13.021 13.4843 12.6185 14.2988 12.7537L14.3302 12.7584L22.0486 14.4857L23.1642 13.3701C24.533 12.0013 25.6612 11.0366 26.6039 10.5515C27.0796 10.307 27.5529 10.1607 28.0144 10.1804C28.4971 10.2008 28.9107 10.4005 29.2503 10.7386Z" fill="#5F6B79"/>
</mask>
<g mask="url(#mask0_1827_10250)">
<path d="M18.0174 19.0435L22.048 14.4894L16.2846 9.36392L11.042 12.6025L8.85716 15.9689L18.0174 19.0435Z" fill="#B6C8DD"/>
<path d="M21.0195 21.9941L25.5023 17.9613L29.0918 24.7094L27.36 27.9452L24.58 30.7253L21.7999 27.3983L21.0195 21.9941Z" fill="#B6C8DD"/>
</g>
</g>
<defs>
<clipPath id="clip0_1827_10250">
<rect x="5.45312" y="5.45312" width="29.0909" height="29.0909" rx="14.5455" fill="white"/>
</clipPath>
</defs>
</svg>
