<svg width="48" height="48" viewBox="0 0 48 48" fill="none" xmlns="http://www.w3.org/2000/svg">
<path d="M20 1H28C38.4934 1 47 9.50659 47 20V28C47 38.4934 38.4934 47 28 47H20C9.50659 47 1 38.4934 1 28V20C1 9.50659 9.50659 1 20 1Z" fill="#F2F3F7"/>
<path d="M20 1H28C38.4934 1 47 9.50659 47 20V28C47 38.4934 38.4934 47 28 47H20C9.50659 47 1 38.4934 1 28V20C1 9.50659 9.50659 1 20 1Z" stroke="#394CFF" stroke-width="2"/>
<circle cx="24" cy="25" r="11" fill="url(#paint0_linear_2305_17003)"/>
<circle cx="18.9189" cy="25.0009" r="1.69231" fill="#F2F3F7"/>
<circle cx="23.997" cy="25.0009" r="1.69231" fill="white"/>
<circle cx="29.0751" cy="25.0009" r="1.69231" fill="#F2F3F7"/>
<defs>
<linearGradient id="paint0_linear_2305_17003" x1="24" y1="14" x2="24" y2="36" gradientUnits="userSpaceOnUse">
<stop stop-color="#9CC7FF"/>
<stop offset="1" stop-color="#58A0FF"/>
</linearGradient>
</defs>
</svg>
