<svg width="48" height="48" viewBox="0 0 48 48" fill="none" xmlns="http://www.w3.org/2000/svg">
<path d="M20 1H28C38.4934 1 47 9.50659 47 20V28C47 38.4934 38.4934 47 28 47H20C9.50659 47 1 38.4934 1 28V20C1 9.50659 9.50659 1 20 1Z" fill="#F2F3F7"/>
<path d="M20 1H28C38.4934 1 47 9.50659 47 20V28C47 38.4934 38.4934 47 28 47H20C9.50659 47 1 38.4934 1 28V20C1 9.50659 9.50659 1 20 1Z" stroke="#394CFF" stroke-width="2"/>
<rect x="8.79688" y="19.7773" width="2.53333" height="8.44444" rx="1.26667" fill="#AF96FF"/>
<rect width="2.53333" height="8.44444" rx="1.26667" transform="matrix(-1 0 0 1 39.1953 19.7773)" fill="#AF96FF"/>
<rect x="14.7109" y="27.7969" width="7.6" height="18.5778" rx="1.32" transform="rotate(-90 14.7109 27.7969)" fill="#AF96FF"/>
<rect x="12.4453" y="16.3984" width="6.75556" height="15.2" rx="2.4" fill="url(#paint0_linear_2305_16904)"/>
<rect width="6.75556" height="15.2" rx="2.4" transform="matrix(-1 0 0 1 35.5547 16.3984)" fill="url(#paint1_linear_2305_16904)"/>
<defs>
<linearGradient id="paint0_linear_2305_16904" x1="15.8231" y1="16.3984" x2="15.8231" y2="31.5984" gradientUnits="userSpaceOnUse">
<stop stop-color="#8864FF"/>
<stop offset="1" stop-color="#4F19FF"/>
</linearGradient>
<linearGradient id="paint1_linear_2305_16904" x1="3.37778" y1="0" x2="3.37778" y2="15.2" gradientUnits="userSpaceOnUse">
<stop stop-color="#8864FF"/>
<stop offset="1" stop-color="#4F19FF"/>
</linearGradient>
</defs>
</svg>
