<svg width="48" height="48" viewBox="0 0 48 48" fill="none" xmlns="http://www.w3.org/2000/svg">
<rect width="48" height="48" rx="20" fill="#F2F3F7"/>
<path d="M27.9648 12.8984C27.9649 18.4846 35.1292 21.2845 34.3545 28.4453C34.1181 32.7022 29.5653 36.0975 23.9805 36.0977C19.4332 36.0977 15.5698 33.846 14.1631 30.7119C14.1121 30.6434 14.0648 30.5727 14.0244 30.498C10.1302 19.6983 21.5649 13.6984 27.9648 12.8984Z" fill="url(#paint0_linear_2305_16561)"/>
<path d="M25.3721 22.0977C24.779 25.2177 28.5635 24.5358 28.7539 29.4336C28.7585 29.5005 28.7617 29.568 28.7617 29.6357C28.7617 29.6501 28.76 29.6644 28.7598 29.6787C28.7604 29.7263 28.7637 29.7746 28.7637 29.8232C28.7608 29.8244 28.7578 29.8251 28.7549 29.8262C28.626 31.8188 26.4882 33.4043 23.8691 33.4043C21.7205 33.4043 19.8958 32.337 19.2383 30.8535C19.2179 30.8251 19.1992 30.7953 19.1826 30.7646C17.3485 25.6776 22.3573 22.4747 25.3721 22.0977Z" fill="#FFD1AF"/>
<defs>
<linearGradient id="paint0_linear_2305_16561" x1="23.8238" y1="12.8984" x2="27.0009" y2="35.9977" gradientUnits="userSpaceOnUse">
<stop stop-color="#FF824D"/>
<stop offset="1" stop-color="#FF4C00"/>
</linearGradient>
</defs>
</svg>
