<svg width="48" height="48" viewBox="0 0 48 48" fill="none" xmlns="http://www.w3.org/2000/svg">
<rect width="48" height="48" rx="20" fill="#F2F3F7"/>
<path d="M32.4189 12.8271C33.2887 12.7197 34.0029 13.4449 34.0029 14.3213V25.7344H34.0059L34.0029 26.2383V26.6006H34.001L33.9639 33.6885C33.9593 34.5616 33.2501 35.2676 32.377 35.2676H32.1348C31.2551 35.2676 30.5432 34.5515 30.5479 33.6719L30.585 26.6006H27.79C26.9136 26.6006 26.2031 25.8901 26.2031 25.0137V18.6768C26.2032 16.8754 27.4933 13.436 32.4189 12.8271Z" fill="url(#paint0_linear_2305_16531)"/>
<path d="M18.4014 12.7344C19.1192 12.7344 19.7012 13.3163 19.7012 14.0342V18.1514C19.7012 18.51 19.9919 18.8008 20.3506 18.8008C20.7092 18.8008 21 18.51 21 18.1514V14.0615C21 13.3541 21.5662 12.7763 22.2734 12.7617C23.0014 12.7469 23.5996 13.3333 23.5996 14.0615V18.7988L23.6035 18.8027V22.2676C23.6035 24.1816 22.0524 25.7323 20.1387 25.7334V33.5361C20.1387 34.4934 19.3625 35.2695 18.4053 35.2695C17.448 35.2695 16.6719 34.4934 16.6719 33.5361V25.4375C14.6514 24.724 13.2031 22.7989 13.2031 20.5342V14.0615C13.2031 13.3333 13.8013 12.7469 14.5293 12.7617C15.2365 12.7763 15.8027 13.3541 15.8027 14.0615V18.1514C15.8027 18.51 16.0935 18.8008 16.4521 18.8008C16.8108 18.8008 17.1016 18.51 17.1016 18.1514V14.0342C17.1016 13.3163 17.6835 12.7344 18.4014 12.7344Z" fill="url(#paint1_linear_2305_16531)"/>
<defs>
<linearGradient id="paint0_linear_2305_16531" x1="32.272" y1="16" x2="32.272" y2="35.2676" gradientUnits="userSpaceOnUse">
<stop stop-color="#FFB0A4"/>
<stop offset="1" stop-color="#FF6D6D"/>
</linearGradient>
<linearGradient id="paint1_linear_2305_16531" x1="18.4023" y1="20.0016" x2="18.4023" y2="35.2697" gradientUnits="userSpaceOnUse">
<stop stop-color="#FF7777"/>
<stop offset="1" stop-color="#FF3535"/>
</linearGradient>
</defs>
</svg>
