<svg width="48" height="48" viewBox="0 0 48 48" fill="none" xmlns="http://www.w3.org/2000/svg">
<rect width="48" height="48" rx="20" fill="#F2F3F7"/>
<path d="M15.2031 16.1992C15.2031 14.5424 16.5463 13.1992 18.2031 13.1992H29.8031C31.46 13.1992 32.8031 14.5424 32.8031 16.1992V30.9992C32.8031 32.6561 31.46 33.9992 29.8031 33.9992H18.2031C16.5463 33.9992 15.2031 32.6561 15.2031 30.9992V16.1992Z" fill="#FF6363"/>
<path d="M15.2031 16.1992C15.2031 14.5424 16.5463 13.1992 18.2031 13.1992H29.8031C31.46 13.1992 32.8031 14.5424 32.8031 16.1992V30.9992C32.8031 32.6561 31.46 33.9992 29.8031 33.9992H18.2031C16.5463 33.9992 15.2031 32.6561 15.2031 30.9992V16.1992Z" fill="#E372EE"/>
<path d="M15.2031 18.0008C15.2031 16.2335 16.6358 14.8008 18.4031 14.8008H29.6031C30.4868 14.8008 31.2031 15.5171 31.2031 16.4008V31.6008C31.2031 33.3681 29.7704 34.8008 28.0031 34.8008H18.4031C16.6358 34.8008 15.2031 33.3681 15.2031 31.6008V18.0008Z" fill="white"/>
<path d="M15.2031 18.7992C15.2031 17.9156 15.9195 17.1992 16.8031 17.1992H29.8031C31.46 17.1992 32.8031 18.5424 32.8031 20.1992V31.7992C32.8031 33.4561 31.46 34.7992 29.8031 34.7992H18.2031C16.5463 34.7992 15.2031 33.4561 15.2031 31.7992V18.7992Z" fill="url(#paint0_linear_2305_16685)"/>
<path d="M25.6016 17.1984C25.6016 16.7566 25.9597 16.3984 26.4016 16.3984H29.6016C30.0434 16.3984 30.4016 16.7566 30.4016 17.1984L30.4016 21.5511C30.4016 22.0723 29.8117 22.375 29.3883 22.071L28.347 21.3233C28.2417 21.2477 28.1013 21.2431 27.9913 21.3115L26.5797 22.1899C26.1534 22.4551 25.6016 22.1486 25.6016 21.6465L25.6016 17.1984Z" fill="#8F009D"/>
<path d="M15.2031 16.3992C15.2031 14.6319 16.6358 13.1992 18.4031 13.1992H18.8031V18.7992H15.2031V16.3992Z" fill="#FF6363"/>
<path d="M15.2031 16.3992C15.2031 14.6319 16.6358 13.1992 18.4031 13.1992H18.8031V18.7992H15.2031V16.3992Z" fill="#E372EE"/>
<circle cx="18.8016" cy="16.0008" r="1.2" fill="white"/>
<defs>
<linearGradient id="paint0_linear_2305_16685" x1="24.0031" y1="17.1992" x2="24.0031" y2="34.7992" gradientUnits="userSpaceOnUse">
<stop stop-color="#E372EE"/>
<stop offset="1" stop-color="#DB3DE9"/>
</linearGradient>
</defs>
</svg>
