<svg width="48" height="48" viewBox="0 0 48 48" fill="none" xmlns="http://www.w3.org/2000/svg">
<rect width="48" height="48" rx="20" fill="#F2F3F7"/>
<path d="M20.4844 28.9102H27.5244L26.9709 33.6184C26.8146 34.948 25.6879 35.9502 24.3491 35.9502C24.2387 35.9502 24.1238 35.9502 24.0044 35.9502C23.9096 35.9502 23.8179 35.9502 23.7292 35.9502C22.4052 35.9502 21.2869 34.9694 21.113 33.6568L20.4844 28.9102Z" fill="#914D00"/>
<path d="M24.0029 12C28.863 12 32.8026 15.9398 32.8027 20.7998C32.8027 23.7919 31.3088 26.4336 29.0267 28.0232C28.6503 28.2854 28.4014 28.7034 28.4014 29.1621C28.4012 31.1059 26.8256 32.6815 24.8818 32.6816H23.1211C21.1774 32.6814 19.6018 31.1058 19.6016 29.1621C19.6016 28.7015 19.3517 28.2819 18.974 28.0183C16.6952 26.4283 15.2031 23.7893 15.2031 20.7998C15.2032 15.9399 19.143 12.0001 24.0029 12Z" fill="url(#paint0_linear_2305_16711)"/>
<path d="M23.1216 16.3984C21.8016 16.3984 20.0416 17.7185 19.6016 18.9206" stroke="white" stroke-width="2.64" stroke-linecap="round" stroke-linejoin="round"/>
<defs>
<linearGradient id="paint0_linear_2305_16711" x1="24.0029" y1="12" x2="24.0029" y2="32.6816" gradientUnits="userSpaceOnUse">
<stop stop-color="#FFC042"/>
<stop offset="1" stop-color="#F4A400"/>
</linearGradient>
</defs>
</svg>
