<svg width="48" height="48" viewBox="0 0 48 48" fill="none" xmlns="http://www.w3.org/2000/svg">
<path d="M20 1H28C38.4934 1 47 9.50659 47 20V28C47 38.4934 38.4934 47 28 47H20C9.50659 47 1 38.4934 1 28V20C1 9.50659 9.50659 1 20 1Z" fill="#F2F3F7"/>
<path d="M20 1H28C38.4934 1 47 9.50659 47 20V28C47 38.4934 38.4934 47 28 47H20C9.50659 47 1 38.4934 1 28V20C1 9.50659 9.50659 1 20 1Z" stroke="#394CFF" stroke-width="2"/>
<path d="M33.0336 14.382L22.4844 17.4847C21.3446 17.8199 20.9792 19.2529 21.8193 20.093L24.8903 23.164C25.4238 23.6975 26.2619 23.7744 26.8837 23.347L34.4373 18.1539C34.8972 17.8377 35.154 17.3005 35.1112 16.7441L35.0357 15.7635C34.9594 14.7712 33.9884 14.1012 33.0336 14.382Z" fill="#C3C9FF"/>
<path d="M14.4354 31.4489L16.9844 22.9522C17.3247 21.8179 18.7528 21.4578 19.5902 22.2952L22.6334 25.3384C23.1842 25.8892 23.2461 26.7611 22.7788 27.3842L17.8935 33.898C17.2455 34.7619 15.9381 34.7256 15.3391 33.8271L14.6322 32.7668C14.3735 32.3788 14.3014 31.8956 14.4354 31.4489Z" fill="#C3C9FF"/>
<path d="M14.3315 15.0044C12.7146 16.6214 13.4757 20.0858 17.4465 24.0566C18.2959 24.906 23.6623 30.3781 27.8363 32.4646L27.5987 35.0776C27.5865 35.2118 27.5908 35.3472 27.6132 35.4801L27.6443 35.659C27.8796 37.0507 29.6916 37.4444 30.4831 36.2756L32.5506 33.2235L32.0389 32.7118V32.7104L32.5492 33.2207L35.6013 31.1532C36.7698 30.3617 36.3763 28.5498 34.9847 28.3145L34.8052 28.2841C34.6724 28.2617 34.5373 28.2567 34.4033 28.2689L31.8352 28.5016C29.8016 24.2802 24.3846 18.8206 23.5336 17.9696C19.5629 13.9989 15.9485 13.3876 14.3315 15.0044Z" fill="url(#paint0_linear_2305_16826)"/>
<path d="M19.0995 16.9003C18.9196 16.7204 18.6631 16.6397 18.4126 16.6841L17.7652 16.7991C16.9223 16.9487 16.2625 17.6085 16.1129 18.4513L15.998 19.0988C15.9535 19.3493 16.0342 19.6058 16.2141 19.7857C16.6594 20.231 17.4217 19.9911 17.5318 19.3711L17.5895 19.0459C17.6592 18.653 17.9668 18.3454 18.3597 18.2757L18.6849 18.2179C19.305 18.1079 19.5448 17.3456 19.0995 16.9003Z" fill="white"/>
<defs>
<linearGradient id="paint0_linear_2305_16826" x1="28.665" y1="22.4951" x2="24.165" y2="35.4951" gradientUnits="userSpaceOnUse">
<stop stop-color="#5262FF"/>
<stop offset="1" stop-color="#0015E6"/>
</linearGradient>
</defs>
</svg>
