<svg width="62" height="20" viewBox="0 0 62 20" fill="none" xmlns="http://www.w3.org/2000/svg">
<g clip-path="url(#clip0_1827_10655)">
<path d="M5.28418 4.59863C5.7348 3.27991 7.55651 3.23971 8.09082 4.47852L8.13672 4.59863L8.74414 6.37793C8.88351 6.78566 9.10949 7.15834 9.40527 7.47168C9.70113 7.78507 10.0608 8.03173 10.46 8.19434L10.623 8.25586L12.4014 8.8623C13.7201 9.31294 13.7596 11.1356 12.5215 11.6699L12.4014 11.7148L10.623 12.3232C10.2151 12.4625 9.84184 12.6876 9.52832 12.9834C9.21483 13.2792 8.96836 13.6389 8.80566 14.0381L8.74414 14.2012L8.13672 15.9805C7.68591 17.2989 5.86453 17.3386 5.33105 16.1006L5.28418 15.9805L4.67676 14.2021C4.53749 13.7942 4.31247 13.42 4.0166 13.1064C3.72079 12.793 3.36104 12.5465 2.96191 12.3838L2.79883 12.3232L1.02051 11.7158C-0.298877 11.2652 -0.339163 9.44285 0.899414 8.90918L1.02051 8.8623L2.79883 8.25586C3.20668 8.11649 3.58014 7.8906 3.89355 7.59473C4.20686 7.2989 4.45267 6.9391 4.61523 6.54004L4.67676 6.37793L5.28418 4.59863ZM60.335 16.2188H58.7666V12.8135H51.8291V11.541H60.335V16.2188ZM29.8867 14.96H27.9229L27.0752 12.4307H23.2178L22.3701 14.96H20.4062L24.0088 4.73047H26.2695L29.8867 14.96ZM32.9385 14.96H31.1016V4.73047H32.9385V14.96ZM43.5645 4.13672C46.3196 4.13672 48.3262 5.47903 48.3262 7.51367C48.3262 8.62981 47.7331 9.52691 46.7441 10.1133V13.377H49.4287V14.6631H37.7578V13.377H40.4561V10.1416C39.439 9.56229 38.825 8.65094 38.832 7.51367C38.8179 5.47915 40.8236 4.13687 43.5645 4.13672ZM45.1475 10.707C44.66 10.8201 44.1296 10.876 43.5645 10.876C43.0136 10.8759 42.491 10.8196 42.0107 10.7207V13.377H45.1475V10.707ZM60.335 5.22559H62.0732V6.49707H60.335V7.9668H62.0732V9.28125H60.335V10.9902H58.7666V3.44531H60.335V5.22559ZM23.7129 10.9473H26.5811L25.1816 6.82129H25.0967L23.7129 10.9473ZM53.8496 4.17969C55.8136 4.16556 57.2837 5.45167 57.2979 7.24609C57.2837 9.06879 55.8136 10.3408 53.8496 10.3408C51.8717 10.3407 50.3882 9.06868 50.4023 7.24609C50.3882 5.45178 51.8717 4.16572 53.8496 4.17969ZM43.5645 5.37988C41.6573 5.38001 40.3579 6.18561 40.3721 7.51367C40.358 8.82759 41.6573 9.64733 43.5645 9.64746C45.4719 9.64746 46.7861 8.8277 46.7861 7.51367C46.7861 6.18551 45.4719 5.37988 43.5645 5.37988ZM53.8496 5.50781C52.7477 5.52208 51.9283 6.18652 51.9424 7.24609C51.9283 8.33394 52.7477 9.01202 53.8496 8.99805C54.9376 9.01218 55.7578 8.33406 55.7578 7.24609C55.7578 6.18641 54.9375 5.52194 53.8496 5.50781ZM12.7393 2C12.8801 2.00005 13.0181 2.03971 13.1377 2.11426C13.2573 2.18886 13.354 2.29528 13.416 2.42188L13.4521 2.50977L13.7158 3.2832L14.4893 3.54688C14.6305 3.59487 14.755 3.68427 14.8457 3.80273C14.9363 3.92112 14.9895 4.06414 14.999 4.21289C15.0085 4.36167 14.9733 4.50973 14.8984 4.63867C14.8235 4.7677 14.7121 4.8719 14.5781 4.9375L14.4893 4.97363L13.7168 5.2373L13.4521 6.01172C13.404 6.15273 13.3156 6.27666 13.1973 6.36719C13.0788 6.4578 12.9359 6.51104 12.7871 6.52051C12.6382 6.52995 12.4894 6.49488 12.3604 6.41992C12.2316 6.34501 12.128 6.23344 12.0625 6.09961L12.0264 6.01172L11.7627 5.23828L10.9883 4.97461C10.847 4.9266 10.7235 4.83718 10.6328 4.71875C10.5421 4.60031 10.488 4.45747 10.4785 4.30859C10.4691 4.15988 10.5043 4.01172 10.5791 3.88281C10.654 3.7538 10.7655 3.64959 10.8994 3.58398L10.9883 3.54785L11.7617 3.28418L12.0254 2.50977C12.0762 2.36103 12.1729 2.23204 12.3008 2.14062C12.4287 2.04926 12.5821 1.99991 12.7393 2Z" fill="url(#paint0_linear_1827_10655)"/>
</g>
<defs>
<linearGradient id="paint0_linear_1827_10655" x1="0" y1="9.50007" x2="62.0735" y2="9.50007" gradientUnits="userSpaceOnUse">
<stop stop-color="#394CFF"/>
<stop offset="1" stop-color="#C539DE"/>
</linearGradient>
<clipPath id="clip0_1827_10655">
<rect width="62" height="20" fill="white"/>
</clipPath>
</defs>
</svg>
