<svg width="36" height="36" viewBox="0 0 36 36" fill="none" xmlns="http://www.w3.org/2000/svg">
<path d="M24.542 10.3955C24.8348 10.1028 25.3096 10.1029 25.6025 10.3955C25.8954 10.6884 25.8954 11.1632 25.6025 11.4561L19.0576 18L25.6025 24.5449C25.8952 24.8378 25.8953 25.3126 25.6025 25.6055C25.3097 25.8983 24.8349 25.8982 24.542 25.6055L17.9971 19.0605L11.4609 25.5986C11.1681 25.8915 10.6933 25.8913 10.4004 25.5986C10.1075 25.3057 10.1075 24.831 10.4004 24.5381L16.9365 18L10.3994 11.4629C10.1068 11.17 10.1066 10.6952 10.3994 10.4023C10.6922 10.1096 11.1671 10.1097 11.46 10.4023L17.9971 16.9395L24.542 10.3955Z" fill="#212121"/>
</svg>
