<svg width="24" height="24" viewBox="0 0 24 24" fill="none" xmlns="http://www.w3.org/2000/svg">
<path d="M16.125 7.5C17.1605 7.5 18 8.33947 18 9.375V18.375C18 19.4105 17.1605 20.25 16.125 20.25H7.875C6.83947 20.25 6 19.4105 6 18.375V9.375C6 8.33947 6.83947 7.5 7.875 7.5H16.125ZM10.125 11.25C9.71079 11.25 9.375 11.5858 9.375 12V15.75C9.375 16.1642 9.71079 16.5 10.125 16.5C10.5392 16.5 10.875 16.1642 10.875 15.75V12C10.875 11.5858 10.5392 11.25 10.125 11.25ZM13.875 11.25C13.4608 11.25 13.125 11.5858 13.125 12V15.75C13.125 16.1642 13.4608 16.5 13.875 16.5C14.2892 16.5 14.625 16.1642 14.625 15.75V12C14.625 11.5858 14.2892 11.25 13.875 11.25Z" fill="#8A8DA0"/>
<rect x="4.5" y="6.75" width="15" height="3" rx="1.5" fill="#8A8DA0"/>
<rect x="9" y="4.5" width="6" height="4.5" rx="1.5" stroke="#8A8DA0" stroke-width="1.5"/>
</svg>
