<svg width="16" height="16" viewBox="0 0 16 16" fill="none" xmlns="http://www.w3.org/2000/svg">
<path d="M10.75 5C11.4404 5 12 5.55964 12 6.25V12.25C12 12.9404 11.4404 13.5 10.75 13.5H5.25C4.55964 13.5 4 12.9404 4 12.25V6.25C4 5.55964 4.55964 5 5.25 5H10.75ZM6.75 7.5C6.47386 7.5 6.25 7.72386 6.25 8V10.5C6.25 10.7761 6.47386 11 6.75 11C7.02614 11 7.25 10.7761 7.25 10.5V8C7.25 7.72386 7.02614 7.5 6.75 7.5ZM9.25 7.5C8.97386 7.5 8.75 7.72386 8.75 8V10.5C8.75 10.7761 8.97386 11 9.25 11C9.52614 11 9.75 10.7761 9.75 10.5V8C9.75 7.72386 9.52614 7.5 9.25 7.5Z" fill="#8A8DA0"/>
<rect x="3" y="4.5" width="10" height="2" rx="1" fill="#8A8DA0"/>
<rect x="6" y="3" width="4" height="3" rx="1" stroke="#8A8DA0"/>
</svg>
