<svg width="40" height="40" viewBox="0 0 40 40" fill="none" xmlns="http://www.w3.org/2000/svg">
<mask id="mask0_2656_19959" style="mask-type:alpha" maskUnits="userSpaceOnUse" x="0" y="0" width="40" height="40">
<rect width="40" height="40" rx="8" fill="#D9D9D9"/>
</mask>
<g mask="url(#mask0_2656_19959)">
<rect width="40" height="40" rx="6.15385" fill="#E2E3ED"/>
<path d="M30.2031 22.8289V16.1309H31.5585V19.8443H31.5864L33.2667 17.853H34.8032L32.9232 19.9928L34.896 22.8289H33.3317L31.9067 20.7958L31.5585 21.1811V22.8289H30.2031Z" fill="#9C9FAE"/>
<path d="M24.6797 22.8281V17.8521H26.0351V18.6691H26.063C26.3183 18.0981 26.8289 17.75 27.5808 17.75C28.6763 17.75 29.2983 18.4509 29.2983 19.616V22.8281H27.9429V19.8945C27.9429 19.2446 27.6365 18.8733 27.0285 18.8733C26.4204 18.8733 26.0351 19.3189 26.0351 19.9688V22.8281H24.6797Z" fill="#9C9FAE"/>
<path d="M23.0913 17.2119C22.6828 17.2119 22.3672 16.8916 22.3672 16.5063C22.3672 16.1211 22.6828 15.8008 23.0913 15.8008C23.4998 15.8008 23.8154 16.1211 23.8154 16.5063C23.8154 16.8916 23.4998 17.2119 23.0913 17.2119ZM22.4136 22.8284V17.8524H23.769V22.8284H22.4136Z" fill="#9C9FAE"/>
<path d="M17.3438 22.8289V16.1309H18.7456V21.6731H21.6746V22.8289H17.3438Z" fill="#9C9FAE"/>
<path d="M13.8242 22.9302C12.311 22.9302 11.3594 21.9601 11.3594 20.3401V20.3308C11.3594 18.7294 12.3342 17.75 13.8195 17.75C15.3096 17.75 16.289 18.7201 16.289 20.3308V20.3401C16.289 21.9647 15.3281 22.9302 13.8242 22.9302ZM13.8288 21.8672C14.488 21.8672 14.9104 21.3102 14.9104 20.3401V20.3308C14.9104 19.37 14.4787 18.813 13.8195 18.813C13.165 18.813 12.738 19.37 12.738 20.3308V20.3401C12.738 21.3149 13.1604 21.8672 13.8288 21.8672Z" fill="#9C9FAE"/>
<path d="M5 22.8289V16.1309H7.55765C9.56292 16.1309 10.7512 17.3238 10.7512 19.4451V19.4544C10.7512 21.5803 9.56756 22.8289 7.55765 22.8289H5ZM6.40183 21.6685H7.39054C8.64384 21.6685 9.32154 20.9072 9.32154 19.459V19.4497C9.32154 18.0526 8.62063 17.2867 7.39054 17.2867H6.40183V21.6685Z" fill="#9C9FAE"/>
<path d="M16.8047 24.2539H34.867V24.9669H16.8047V24.2539Z" fill="#9C9FAE"/>
</g>
</svg>
