<svg width="36" height="36" viewBox="0 0 36 36" fill="none" xmlns="http://www.w3.org/2000/svg">
<path d="M18 23.5C18.8284 23.5 19.5 24.1716 19.5 25C19.5 25.8284 18.8284 26.5 18 26.5C17.1716 26.5 16.5 25.8284 16.5 25C16.5 24.1716 17.1716 23.5 18 23.5ZM18 16.5C18.8284 16.5 19.5 17.1716 19.5 18C19.5 18.8284 18.8284 19.5 18 19.5C17.1716 19.5 16.5 18.8284 16.5 18C16.5 17.1716 17.1716 16.5 18 16.5ZM18 9.5C18.8284 9.5 19.5 10.1716 19.5 11C19.5 11.8284 18.8284 12.5 18 12.5C17.1716 12.5 16.5 11.8284 16.5 11C16.5 10.1716 17.1716 9.5 18 9.5Z" fill="#212121"/>
</svg>
