<svg width="24" height="24" viewBox="0 0 24 24" fill="none" xmlns="http://www.w3.org/2000/svg">
<path d="M10.5 18C10.5 17.1716 11.1716 16.5 12 16.5C12.8284 16.5 13.5 17.1716 13.5 18C13.5 18.8284 12.8284 19.5 12 19.5C11.1716 19.5 10.5 18.8284 10.5 18ZM10.5 12C10.5 11.1716 11.1716 10.5 12 10.5C12.8284 10.5 13.5 11.1716 13.5 12C13.5 12.8284 12.8284 13.5 12 13.5C11.1716 13.5 10.5 12.8284 10.5 12ZM10.5 6C10.5001 5.17164 11.1716 4.5 12 4.5C12.8283 4.50008 13.4999 5.17169 13.5 6C13.5 6.82838 12.8284 7.49992 12 7.5C11.1716 7.5 10.5 6.82843 10.5 6Z" fill="#8A8DA0"/>
</svg>
