<svg width="16" height="16" viewBox="0 0 16 16" fill="none" xmlns="http://www.w3.org/2000/svg">
<g clip-path="url(#clip0_1827_10695)">
<path d="M7.07203 2.31085C7.40793 1.47438 8.59207 1.47438 8.92797 2.31085L9.83505 4.56967C9.97809 4.92587 10.3124 5.16876 10.6954 5.19473L13.1239 5.3594C14.0233 5.42038 14.3892 6.54656 13.6975 7.12451L11.8295 8.68521C11.5349 8.93132 11.4072 9.32433 11.5009 9.69658L12.0947 12.0572C12.3147 12.9313 11.3567 13.6273 10.5933 13.1481L8.53171 11.8538C8.20661 11.6497 7.79339 11.6497 7.46829 11.8538L5.40675 13.1481C4.64333 13.6273 3.68534 12.9313 3.90526 12.0572L4.49911 9.69658C4.59276 9.32433 4.46507 8.93132 4.1705 8.68521L2.30254 7.12451C1.61081 6.54656 1.97673 5.42038 2.87606 5.3594L5.30463 5.19473C5.6876 5.16876 6.02191 4.92587 6.16495 4.56967L7.07203 2.31085Z" fill="#919AFF"/>
</g>
<defs>
<clipPath id="clip0_1827_10695">
<rect width="16" height="16" fill="white"/>
</clipPath>
</defs>
</svg>
